# xmcd
#
# Track frame offsets: 
#        150
#        15892
#        31489
#        39664
#
# Disc length: 677 seconds
#
# Revision: 0
# Processed by: cddbd v1.5.1PL2 Copyright (c) Steve Scherf et al.
# Submitted via: ExactAudioCopy v0.95a5
#
DISCID=2302a304
DTITLE=Isobel Campbell and Mark Lanegan - Ramblin' Man
DYEAR=2005
DGENRE=Country
TTITLE0=Ramblin' Man
TTITLE1=(Do You Wanna) Come Walk With Me?
TTITLE2=Revolver (Part 2)
TTITLE3=St. James Infirmary
EXTD=
EXTT0=
EXTT1=
EXTT2=
EXTT3=
PLAYORDER=
